<svg width="99" height="15" viewBox="0 0 99 15" fill="none" xmlns="http://www.w3.org/2000/svg">
<path d="M5.62734 9.1V6.006H5.51534L3.45734 11.032L1.39934 6.006H1.28734V9.1V14H0.209343V4.228H1.72134L3.44334 8.54H3.52734L5.24934 4.228H6.70534V14H5.62734V9.1ZM14.7219 14C14.2832 14 13.9705 13.888 13.7839 13.664C13.5972 13.44 13.4805 13.16 13.4339 12.824H13.3639C13.2052 13.244 12.9485 13.5753 12.5939 13.818C12.2485 14.0513 11.7819 14.168 11.1939 14.168C10.4379 14.168 9.83587 13.972 9.38787 13.58C8.93987 13.188 8.71587 12.6513 8.71587 11.97C8.71587 11.298 8.95854 10.78 9.44387 10.416C9.93854 10.052 10.7319 9.87 11.8239 9.87H13.3639V9.156C13.3639 8.624 13.2145 8.22733 12.9159 7.966C12.6172 7.69533 12.1925 7.56 11.6419 7.56C11.1565 7.56 10.7599 7.658 10.4519 7.854C10.1439 8.04067 9.89654 8.29733 9.70988 8.624L8.95387 8.064C9.04721 7.87733 9.17321 7.69533 9.33187 7.518C9.49054 7.34067 9.68654 7.18667 9.91988 7.056C10.1532 6.916 10.4192 6.80867 10.7179 6.734C11.0165 6.65 11.3479 6.608 11.7119 6.608C12.5612 6.608 13.2332 6.82267 13.7279 7.252C14.2319 7.68133 14.4839 8.27867 14.4839 9.044V13.02H15.4919V14H14.7219ZM11.3899 13.23C11.6792 13.23 11.9405 13.1973 12.1739 13.132C12.4165 13.0573 12.6265 12.964 12.8039 12.852C12.9812 12.7307 13.1165 12.5907 13.2099 12.432C13.3125 12.264 13.3639 12.0867 13.3639 11.9V10.71H11.8239C11.1519 10.71 10.6619 10.8033 10.3539 10.99C10.0459 11.1767 9.89187 11.4473 9.89187 11.802V12.096C9.89187 12.4693 10.0225 12.754 10.2839 12.95C10.5545 13.1367 10.9232 13.23 11.3899 13.23ZM22.2764 12.824H22.2204C21.7537 13.72 21.0117 14.168 19.9944 14.168C19.1077 14.168 18.4124 13.8367 17.9084 13.174C17.4137 12.5113 17.1664 11.5827 17.1664 10.388C17.1664 9.19333 17.4137 8.26467 17.9084 7.602C18.4124 6.93933 19.1077 6.608 19.9944 6.608C21.0117 6.608 21.7537 7.056 22.2204 7.952H22.2764V3.64H23.3964V14H22.2764V12.824ZM20.4284 13.174C20.6804 13.174 20.9184 13.1413 21.1424 13.076C21.3664 13.0107 21.5624 12.9173 21.7304 12.796C21.8984 12.6653 22.0291 12.5113 22.1224 12.334C22.2251 12.1473 22.2764 11.9327 22.2764 11.69V9.086C22.2764 8.84333 22.2251 8.63333 22.1224 8.456C22.0291 8.26933 21.8984 8.11533 21.7304 7.994C21.5624 7.86333 21.3664 7.76533 21.1424 7.7C20.9184 7.63467 20.6804 7.602 20.4284 7.602C19.7751 7.602 19.2664 7.80267 18.9024 8.204C18.5477 8.596 18.3704 9.11867 18.3704 9.772V11.004C18.3704 11.6573 18.5477 12.1847 18.9024 12.586C19.2664 12.978 19.7751 13.174 20.4284 13.174ZM29.1869 14.168C28.6643 14.168 28.1929 14.0793 27.7729 13.902C27.3623 13.7247 27.0076 13.4727 26.7089 13.146C26.4196 12.81 26.1956 12.4133 26.0369 11.956C25.8783 11.4893 25.7989 10.9713 25.7989 10.402C25.7989 9.82333 25.8783 9.30067 26.0369 8.834C26.2049 8.36733 26.4336 7.97067 26.7229 7.644C27.0123 7.308 27.3576 7.05133 27.7589 6.874C28.1696 6.69667 28.6223 6.608 29.1169 6.608C29.6023 6.608 30.0409 6.69667 30.4329 6.874C30.8343 7.05133 31.1749 7.29867 31.4549 7.616C31.7349 7.924 31.9496 8.29267 32.0989 8.722C32.2483 9.15133 32.3229 9.62267 32.3229 10.136V10.668H26.9749V11.004C26.9749 11.3213 27.0263 11.6153 27.1289 11.886C27.2316 12.1567 27.3763 12.39 27.5629 12.586C27.7589 12.782 27.9923 12.936 28.2629 13.048C28.5429 13.1507 28.8509 13.202 29.1869 13.202C29.6723 13.202 30.0923 13.09 30.4469 12.866C30.8016 12.642 31.0723 12.334 31.2589 11.942L32.0849 12.502C31.8703 12.9873 31.5109 13.3887 31.0069 13.706C30.5123 14.014 29.9056 14.168 29.1869 14.168ZM29.1169 7.532C28.8089 7.532 28.5243 7.588 28.2629 7.7C28.0016 7.812 27.7729 7.966 27.5769 8.162C27.3903 8.358 27.2409 8.59133 27.1289 8.862C27.0263 9.12333 26.9749 9.41267 26.9749 9.73V9.828H31.1189V9.674C31.1189 9.35667 31.0676 9.06733 30.9649 8.806C30.8716 8.54467 30.7363 8.32067 30.5589 8.134C30.3909 7.938 30.1809 7.78867 29.9289 7.686C29.6863 7.58333 29.4156 7.532 29.1169 7.532ZM42.35 6.776H43.344L44.17 13.02H44.296L45.528 6.776H46.76L47.992 13.02H48.118L48.944 6.776H49.91L48.804 14H47.348L46.2 7.952H46.088L44.912 14H43.456L42.35 6.776ZM55.1125 5.18C54.7859 5.18 54.5572 5.11467 54.4265 4.984C54.2959 4.844 54.2305 4.67133 54.2305 4.466V4.242C54.2305 4.03667 54.2959 3.86867 54.4265 3.738C54.5572 3.598 54.7859 3.528 55.1125 3.528C55.4392 3.528 55.6679 3.598 55.7985 3.738C55.9292 3.86867 55.9945 4.03667 55.9945 4.242V4.466C55.9945 4.67133 55.9292 4.844 55.7985 4.984C55.6679 5.11467 55.4392 5.18 55.1125 5.18ZM51.9485 13.048H54.5525V7.728H51.9485V6.776H55.6725V13.048H58.1085V14H51.9485V13.048ZM63.5491 14C62.9984 14 62.5924 13.846 62.3311 13.538C62.0791 13.23 61.9531 12.8333 61.9531 12.348V7.728H59.5451V6.776H61.3371C61.5797 6.776 61.7477 6.72933 61.8411 6.636C61.9437 6.53333 61.9951 6.36067 61.9951 6.118V4.228H63.0731V6.776H66.3631V7.728H63.0731V13.048H66.3631V14H63.5491ZM68.9056 3.64H70.0256V7.952H70.0816C70.1563 7.77467 70.2496 7.60667 70.3616 7.448C70.4736 7.28 70.6089 7.13533 70.7676 7.014C70.9356 6.89267 71.1316 6.79467 71.3556 6.72C71.5796 6.64533 71.8409 6.608 72.1396 6.608C72.8956 6.608 73.5023 6.85067 73.9596 7.336C74.4169 7.812 74.6456 8.48867 74.6456 9.366V14H73.5256V9.562C73.5256 8.89933 73.3809 8.40933 73.0916 8.092C72.8023 7.76533 72.3776 7.602 71.8176 7.602C71.5936 7.602 71.3743 7.63 71.1596 7.686C70.9449 7.742 70.7536 7.826 70.5856 7.938C70.4176 8.05 70.2823 8.19467 70.1796 8.372C70.0769 8.54933 70.0256 8.75467 70.0256 8.988V14H68.9056V3.64ZM84.6027 14.98H98.6027V0.98H84.6027V14.98Z" fill="#9C9C9C"/>
</svg>
